PathFileType	4	(X/Y/Z)	Patient4_TMGait_0pt2_02_left_15.trc.trc
DataRate	CameraRate	NumFrames	NumMarkers	Units	OrigDataRate	OrigDataStartFrame	OrigNumFrames
42.424242424242	42.424242424242	5	33	mm	42.424242424242	53	       141
Frame#	Time	R.Midfoot.Superior			Sacral			L.Shoulder			Chest			R.Shoulder			Neck			R.ASIS			L.ASIS			R.Thigh.Superior			R.Thigh.Lateral			R.Thigh.Inferior			R.Patella			L.Thigh.Superior			L.Thigh.Lateral			L.Thigh.Inferior			L.Patella			L.Shank.Superior			L.Shank.Lateral			L.Shank.Inferior			R.Shank.Superior			R.Shank.Lateral			R.Shank.Inferior			R.Heel			R.Midfoot.Lateral			R.Toe			L.Heel			L.Midfoot.Lateral			L.Midfoot.Superior			L.Toe			L.Elbow			L.Wrist			R.Elbow			R.Wrist			
		X1	Y1	Z1	X2	Y2	Z2	X3	Y3	Z3	X4	Y4	Z4	X5	Y5	Z5	X6	Y6	Z6	X7	Y7	Z7	X8	Y8	Z8	X9	Y9	Z9	X10	Y10	Z10	X11	Y11	Z11	X12	Y12	Z12	X13	Y13	Z13	X14	Y14	Z14	X15	Y15	Z15	X16	Y16	Z16	X17	Y17	Z17	X18	Y18	Z18	X19	Y19	Z19	X20	Y20	Z20	X21	Y21	Z21	X22	Y22	Z22	X23	Y23	Z23	X24	Y24	Z24	X25	Y25	Z25	X26	Y26	Z26	X27	Y27	Z27	X28	Y28	Z28	X29	Y29	Z29	X30	Y30	Z30	X31	Y31	Z31	X32	Y32	Z32	X33	Y33	Z33	

53	35.475714285714	881.443823604290	123.722790939900	610.268191206051	871.664790954781	998.710653161364	434.405268230475	1054.583780704716	1419.570467830721	236.923309689040	1165.262374655460	1344.792870439361	389.710777375707	1102.343429463149	1424.032561795004	567.914631963306	1049.464888614552	1482.557402563318	395.441113713166	1103.981874397662	927.552381615748	539.723786640784	1078.061277561153	947.005027409597	266.954121890757	1136.745612929524	725.046906393198	524.364228455413	1058.483121234234	622.964684846860	601.972042558402	1132.355347375072	557.850639947330	526.956619587908	1122.776683970392	452.257660168440	553.186242140020	1147.429045003303	751.910538372550	312.501967508227	1081.439247168051	619.987831019339	255.687767010520	1174.683973719982	557.598603784701	326.043618930733	1183.820586227798	482.099340290097	335.103203886234	1146.561783350089	406.889007009477	330.169377143594	1048.047233773300	301.466324408498	276.603413075960	1079.168147684754	187.710966822467	351.808988774892	1046.182470524293	387.690201138725	566.391236038828	932.220581799047	349.973136693660	639.492287454828	912.602817227940	240.390277397550	592.142727445757	707.852953742231	169.485308404181	587.232145743141	777.423084730206	114.011651096851	652.647360948428	955.512234287517	33.545074747830	624.655156125745	933.252231717475	40.971488455413	387.115403386711	1010.747310581207	37.244569822890	310.625962058924	1094.281975357223	96.399805033009	341.278489106345	1222.494612645448	40.596303022744	317.187775065436	1080.044528679448	1078.160245131351	97.214050554666	1219.402099290951	856.084465947281	94.954508913654	1143.487441995244	1073.575654305052	681.376426711580	1295.024255158207	863.310089830790	691.432565872617	
54	35.499285714286	886.783307878464	130.693991975581	608.603344593502	869.933006564731	996.684499899653	428.589400347515	1058.901048645648	1417.420113932453	232.846767495046	1165.854598367461	1342.360065215008	388.077030775177	1099.389698327989	1421.786916007826	565.017244226813	1050.534415372437	1480.582088506257	391.327173996500	1101.755230589369	926.289928253471	536.010592393215	1078.156630177550	945.039665898878	262.783242850506	1143.585154322022	728.207073574564	519.587307705411	1071.616115896802	623.289597697532	598.197079387035	1148.357893964324	560.854170292980	522.761013217795	1142.154158253535	453.099377346919	550.159235035123	1147.403438993134	749.964788995807	308.358352427489	1081.281985396502	618.134031106657	252.530504369380	1174.388768970828	556.011200065200	323.548286494606	1183.448354153788	480.429591475566	333.109431003836	1145.422081709750	405.055654479957	328.481152898363	1045.902939317268	300.344538219810	275.136741714566	1075.573554948537	186.707855548266	351.139752543122	1063.097041676761	389.098554347185	563.276876675616	946.894492163638	356.546058643091	636.049425989976	923.133473209715	247.331137751992	589.760949595033	715.675619882173	187.142829499144	584.427243969207	781.612365950508	127.408020043627	650.347655428321	954.691063434536	33.734989465996	623.753219881444	928.499612232569	40.786817432806	386.942320707280	1006.003223480294	37.030070732849	310.407968150730	1089.496212093269	96.225314752786	341.130574487903	1217.804393213746	40.550842263576	317.152336521871	1099.293181204326	1079.968267589588	89.130508182722	1252.399522624429	867.171564957442	85.703232519982	1115.110415554233	1069.265490852758	679.703945723036	1242.814207490847	843.078101886388	693.921732727122	
55	35.522857142857	894.077834550210	137.953775398495	606.546291283188	868.059693209542	994.810721103668	423.172355023898	1063.138102390617	1415.441904734965	229.366876831011	1166.196842702613	1340.152061356182	387.053404209930	1096.000145315084	1419.785091174601	562.557259892698	1051.412951514884	1478.776153952597	387.726797657347	1099.419137325392	925.252310917463	532.708013623548	1078.085100915224	943.284288087870	259.051694341591	1150.119184729146	732.124242162082	514.841251912722	1084.755307729618	624.470747987349	594.487556700909	1164.054457024496	564.954483812429	518.411135565993	1161.514547817706	455.275714896114	546.720984263656	1147.152473807877	748.105061900264	304.596496080227	1080.846631275968	616.387333017381	249.740191858159	1173.769344532165	554.493447971765	321.400679157471	1182.730362390295	478.846200643521	331.456638478646	1143.979071886206	403.344934198310	327.089427734540	1043.571920521024	299.308533186615	273.886668826247	1071.879129145231	185.772435495743	350.592325815397	1080.423913453654	391.380779463325	559.880867673350	962.320272511483	363.263951284186	632.386652830936	934.900269232250	254.415154742273	587.013557769595	725.231823566208	203.657056477050	581.267764017271	787.947016353715	140.306372759853	647.720575676813	956.573580126953	34.379416016094	622.544573751935	923.735812646565	40.615360776908	386.791705507054	1001.251044984289	36.848455222267	310.207918449256	1084.705043706972	96.064326657930	341.010836055942	1213.099273618707	40.517937001324	317.116992043357	1117.728265479296	1082.614751070745	81.969063671068	1284.152759434066	880.064272238824	77.374068424081	1085.989285328916	1067.167925240693	677.752537699739	1189.249965239614	828.301671576051	694.759079489079	
56	35.546428571429	903.580920645109	144.912940558701	604.260271843642	866.142279391626	993.249211425571	418.106863911086	1067.263411948149	1413.807164710018	226.501213404233	1166.281983422376	1338.365403603034	386.640402582692	1092.173087570692	1418.219443807972	560.513944525563	1052.069561492176	1477.297128636628	384.653443270259	1097.007946490167	924.592470004987	529.850841633310	1077.969079099682	941.873514063584	255.818284530416	1156.030113384951	736.722416493186	510.257337176143	1097.307459266846	626.544749911032	590.909960501580	1178.785111297450	570.058376543826	514.038487291387	1180.116668845972	458.796153924757	543.021531046839	1146.703745742008	746.396558696596	301.327733859080	1080.130366037788	614.829192860440	247.375980190068	1172.748240170816	553.083964234344	319.693934153042	1181.549785307738	477.400308445158	330.233693027484	1142.130919458419	401.824746442434	326.053380784338	1041.005783445757	298.396916361973	272.886572606174	1068.053311693661	184.943949149319	350.189709571588	1097.567528878190	394.496997270846	556.364165030739	977.981131994592	369.740701836518	628.665097266305	947.756507356574	261.141432291947	584.076898542134	736.480293975774	217.672100278919	577.982563338533	796.691631318067	151.624494487026	644.959279448946	961.890463457665	35.485998999837	621.111374442212	918.959107333044	40.464789902131	386.664276185163	996.491622395154	36.705369027550	310.031841699830	1079.910520351858	95.924149300151	340.922158232961	1208.378660451930	40.496077590847	317.083210736959	1135.175310475553	1086.118568196707	75.786451425194	1314.327878643101	894.696233247591	70.119657250486	1056.609349265723	1067.436989684110	675.443931397348	1135.517855219573	819.027655547451	694.018436991364	
57	35.570000000000	915.528834653813	150.940475147331	601.970578942044	864.276474628724	992.145289501778	413.324504811863	1071.253572179617	1412.663354563101	224.242201511832	1166.117842901514	1337.168769319342	386.809202313451	1087.940247646167	1417.259738977731	558.844037721013	1052.483609593772	1476.282398597944	382.094150716922	1094.537727719307	924.433689484409	527.466095366795	1077.936559293991	940.919518664750	253.133520556234	1161.036057570508	741.854630869135	505.995973394685	1108.698879364923	629.449544695010	587.558269146435	1191.946580511406	575.964791580500	509.815659310796	1197.256694775992	463.553982345630	539.267890928314	1146.079293061465	744.893578160947	298.641531116817	1079.119096165393	613.539050255022	245.459860316326	1171.237131095410	551.815491323723	318.480589955513	1179.779646723314	476.140642899787	329.486089993255	1139.769548687247	400.557597952457	325.391286148760	1038.143007302162	297.639368620446	272.140058016626	1064.059314677732	184.256366678116	349.934524946422	1113.962493619125	398.321481792292	552.930290520829	993.396110050605	375.538596053936	625.089075624745	961.575633437061	266.975539596588	581.177763867582	749.415855970834	227.904247379714	574.836435561490	808.089585053457	160.312251776168	642.303168310411	971.292210229254	36.975190189119	619.617054466650	914.167975052895	40.338099934370	386.557438130770	991.725395151401	36.600300189253	309.881281933498	1075.113000529385	95.809537361299	340.861743226881	1203.643000367019	40.484383278491	317.052856575171	1151.507665391315	1090.465327671057	70.605006434163	1342.653180950061	910.937112457961	64.081587475896	1027.499106821329	1070.108525079561	672.717286325720	1082.781756074649	815.036701500758	691.832188022733	
